<svg width="32" height="32" viewBox="0 0 86 86" fill="none" xmlns="http://www.w3.org/2000/svg">
  <circle cx="43" cy="43" r="38" stroke="#8B2635" stroke-width="1.5"/>
  <circle cx="43" cy="43" r="32" stroke="#C4A44A" stroke-width="0.65" stroke-dasharray="2.5 4"/>
  <line x1="43" y1="6" x2="43" y2="13.5" stroke="#8B2635" stroke-width="2.25"/>
  <line x1="43" y1="72.5" x2="43" y2="80" stroke="#8B2635" stroke-width="1.5"/>
  <line x1="6" y1="43" x2="13.5" y2="43" stroke="#8B2635" stroke-width="1.5"/>
  <line x1="72.5" y1="43" x2="80" y2="43" stroke="#8B2635" stroke-width="1.5"/>
  <line x1="16.1" y1="16.1" x2="20.8" y2="20.8" stroke="#C4A44A" stroke-width="0.85"/>
  <line x1="69.9" y1="16.1" x2="65.2" y2="20.8" stroke="#C4A44A" stroke-width="0.85"/>
  <line x1="16.1" y1="69.9" x2="20.8" y2="65.2" stroke="#C4A44A" stroke-width="0.85"/>
  <line x1="69.9" y1="69.9" x2="65.2" y2="65.2" stroke="#C4A44A" stroke-width="0.85"/>
  <polygon points="43,12 39,43 43,36.5 47,43" fill="#8B2635"/>
  <polygon points="43,74 39,43 43,49.5 47,43" fill="#cdc2a0"/>
  <circle cx="43" cy="43" r="5" fill="#8B2635"/>
  <circle cx="43" cy="43" r="2.2" fill="#C4A44A"/>
</svg>
